<svg xmlns="http://www.w3.org/2000/svg" height="800" width="1200" version="1.0" viewBox="-60 -23.714575 520 142.28745"><g fill="#b50938"><path d="M22.2845 18.5216h-.0099m259.6141 29.3448c-1.5848 0-3.2651-.4781-4.988-1.426l-.8152-.445-3.8326 8.4432.7097.3702c3.2747 1.7888 6.2525 2.5417 9.916 2.5417 6.79 0 10.7215-3.3144 14.0125-11.7912l16.4252-42.453h-11.4637s-8.4738 24.2947-9.8206 28.1303c-1.4559-3.796-10.7575-28.1304-10.7575-28.1304h-11.715s16.7821 40.2581 17.0755 40.9678c-1.4421 3.1361-2.8453 3.7924-4.7463 3.7924M175.5396 37.1916l.5477-.6143-6.7439-6.661-.6304.6239c-3.195 3.2843-6.219 4.7468-9.7804 4.7468-6.348 0-11.1337-5.1626-11.1337-12.045v-.1517c0-6.6778 4.6868-11.8902 10.6814-11.8902 4.6412 0 7.4402 2.2742 9.784 4.7367l.6238.67 6.8824-7.4104-.541-.5973c-4.513-4.9778-9.6587-7.1962-16.67-7.1962-12.174 0-21.6904 9.586-21.6904 21.8392v.1583c0 12.1175 9.4835 21.6142 21.6112 21.6142 8.8595 0 13.5968-3.9544 17.0593-7.823m24.9716 7.6682c12.5693 0 22.3868-9.5566 22.3868-21.76v-.1547c0-12.1708-9.7642-21.694-22.2158-21.694-12.5134 0-22.3004 9.5893-22.3004 21.8488v.1583c0 12.108 9.7246 21.6016 22.1294 21.6016M189.314 22.9451c0-6.8926 4.7073-11.9066 11.1973-11.9066 6.5321 0 11.4673 5.179 11.4673 12.0614v.1583c0 5.8986-3.8854 11.8836-11.2963 11.8836-6.3803 0-11.3683-5.2747-11.3683-12.042M118.82 2.6936l.0528.855v22.9478c0 4.6676-3.027 7.9226-7.391 7.9226-4.3042 0-7.5687-3.453-7.5687-8.0348V2.6936H92.4122v23.8028c0 10.388 8.3251 17.2242 18.9573 17.2242 3.2484 0 6.282-1.2081 8.9328-2.5578l.7523-.4031.1223 2.1223v.8057h9.2093V2.6936h-11.5134m121.7738 41.027l-.0462-.8446V19.9241c0-4.6802 3.0306-7.9317 7.3875-7.9317 4.3209 0 7.5722 3.453 7.5722 8.044v23.6842h11.5039V19.9241c0-10.4074-8.3215-17.2305-18.9537-17.2305-3.2646 0-6.2951 1.1983-8.946 2.5616l-.7522.3928-.1188-2.1193v-.8351h-9.2195v41.027h11.5266M73.7129 3.3703v1.776c-3.3012-1.885-7.2453-3.8226-11.5633-3.8226-12.7481 0-22.7367 8.8927-22.7367 21.3833v.162c0 12.3616 9.9258 21.1456 22.588 21.1456 4.3179 0 8.3089-1.9904 11.712-3.9316v2.8722h10.2855V2.3932H73.7129zM62.5456 34.9996c-6.9052 0-12.497-5.5056-12.497-12.2926 0-6.7834 5.5918-12.2893 12.497-12.2893 6.8991 0 12.5008 5.5059 12.5008 12.2893 0 6.787-5.6017 12.2926-12.5008 12.2926M19.426 8.4306c2.8023 0 6.6743 1.3568 11.4738 4.004l.3864.2179 4.301-7.7968-.3432-.2212C30.5632 1.7298 24.6678 0 19.482 0 11.5202 0 3.4858 4.2582 3.4858 13.7916v.1584c0 7.7966 7.176 10.8997 13.4115 12.7311 4.1361 1.2214 8.1731 2.6641 8.1731 5.7409v.1547c0 1.324-.5907 4.79-6.0902 4.79-3.8586 0-8.7507-2.268-13.7978-5.6616l-.363-.2537L0 38.8616l.34.2448c5.3738 3.9676 11.87 6.6676 18.3002 6.6676 10.8138 0 16.7621-5.2453 16.7621-13.8505v-.8717c0-5.4462-4.3472-9.5398-13.3259-12.5302h.0068-.0068l-1.0957-.3731c-4.156-1.3797-7.1631-2.3833-7.1631-5.5487v-.175c0-1.9178 1.756-3.9942 5.6083-3.9942"/><path d="M399.431 50.128v-.0133c-3.3605-2.2909-3.3605-2.307-5.658-3.694-22.0437-13.3617-33.4348-14.9297-44.1198-11.3617-8.3053 2.7799-22.5883 14.0851-22.5883 14.0851-13.0456 8.7048-26.2393 23.0899-57.1623 21.4096-28.7905-1.5578-88.0745-16.953-88.7914-17.151-.7162-.2082-1.4619.3263-1.2411 1.1685.1685.6365 1.6076 3.7954 1.6076 3.7954.1818.4296.5645.5285.7529.6143 23.6081 9.4739 95.6174 35.8774 121.0677 35.8774 30.3322 0 55.4287-42.1095 82.4105-42.1095 8.3713 0 10.4973.3005 11.6952.3101 1.192.1026 2.1986-.2573 2.4985-1.3071 0 0 .4163-.8746-.4715-1.6239m-78.2617 26.9915c-.3402 1.7102-1.327 3.1721-2.763 4.1325-1.4524.9706-3.1782 1.2976-4.8849.9706-1.7036-.3563-3.1661-1.3335-4.123-2.7726-1.9903-2.991-1.175-7.021 1.8087-9.0113 2.9808-1.9808 7.018-1.1656 9.0018 1.8086.9604 1.4457 1.3005 3.1787.9604 4.8722m16.343-8.5788c-2.9874 1.9837-7.018 1.162-9.0113-1.8093-1.9676-2.994-1.1722-7.0305 1.8086-9.0077 2.9844-1.9742 7.021-1.162 9.0047 1.805.736 1.0894 1.0792 2.3473 1.0894 3.5717 0 2.1091-1.0168 4.1823-2.8914 5.4403m21.8715-16.8482c-.3365 1.7-1.3233 3.1788-2.7756 4.123-1.4427.9736-3.1692 1.3071-4.8656.964-1.7067-.3402-3.1692-1.3306-4.1428-2.763-.9508-1.4494-1.2939-3.1752-.9508-4.8753.3432-1.7036 1.3138-3.1727 2.7793-4.1265 1.436-.964 3.159-1.3071 4.8656-.964 1.697.3371 3.1655 1.324 4.1295 2.7696.9604 1.4397 1.3006 3.1692.9604 4.8722m-34.9596-48.256c4.3605 0 7.9916 3.4064 7.9916 7.876 0 4.5452-3.6311 7.9585-7.9916 7.9585-4.3275 0-7.9718-3.4133-7.9718-7.8794 0-4.5487 3.6443-7.9551 7.9718-7.9551m0 14.6791c3.733 0 6.7138-2.9412 6.7138-6.8031 0-3.8158-2.9808-6.7306-6.7138-6.7306-3.7138 0-6.7012 2.9148-6.7012 6.8097 0 3.7828 2.9874 6.724 6.7012 6.724m-2.9514-11.2924h3.3773c2.1782 0 3.2118.8021 3.2118 2.634 0 1.6472-1.0564 2.3406-2.423 2.4924l2.6605 4.0466h-1.4031l-2.505-3.9412h-1.6342v3.9412h-1.2843zm1.2843 4.0864h1.5645c1.2742 0 2.4625-.069 2.4625-1.5149 0-1.2742-1.0762-1.4294-2.063-1.4294h-1.964"/></g></svg>