<svg xmlns="http://www.w3.org/2000/svg" height="800" width="1200" version="1.0" viewBox="-111.0699 -43.71125 962.6058 262.2675"><g fill="#ed1a3a"><path d="M62.676 6.85H0v28.34h18.445v85.86s0 53.663 56.699 53.663c0 0 24.036.45 38.207-19.328 0 0 12.034 19.328 34.768 19.328 0 0 21.513 2.17 36.086-11.15 0 0 30.093-20.18 29.627-82.454 0 0-.868-46.77-12.018-74.26h-51.606V35.19h15.536s8.178 23.184 8.178 52.811c0 0 .9 17.754-8.178 36.488 0 0-5.543 13.335-17.625 13.335 0 0-10.7-.45-10.299-13.335V6.85H75.144v28.34h18.477v87.194s0 15.44-15.44 15.44c0 0-15.505-.016-15.505-15.44V6.85m190.342 12.773s26.06 0 26.06 20.18c0 0 .113 20.18-26.06 20.18 0 0-26.22 0-26.22-20.18 0 0-.193-20.18 26.22-20.18"/><path d="M221.994 63.533h51.06v67.64s0 7.729 7.117 7.729c0 0 8.805-1.06 13.946-9.48 0 0 7.744-9.865 7.744-18.01v-81.78S302.921.005 342.622.005c0 0 39.524-1.285 39.524 37.13 0 0 2.185 18.011-12.435 43.798 0 0-6.443 12.002-13.77 22.975 0 0-5.35 8.323-10.507 15.65 0 0-4.08 4.53-4.08 10.33 0 0-.45 9.656 9.88 9.656 0 0 9.03-.209 16.083-7.953 0 0 10.556-9.865 16.115-25.739 0 0 8.804-19.135 9.222-42.32h37.58s.193 3.632 1.301 7.52c0 0 1.286 5.784 8.821 16.115 0 0 10.508 15.022 13.737 20.597 0 0 7.921 11.793 7.921 26.639 0 0-.209 14.797-10.556 25.096 0 0-11.568 14.412-28.518 14.412 0 0-11.81 0-22.317-5.832 0 0-12.901-6.877-18.477-14.605 0 0-.594-.851-2.104-.851l-2.089.915s-7.648 8.114-15.761 12.597c0 0-10.749 7.776-26.398 7.776 0 0-14.203 0-22.767-8.194 0 0-7.519-6.218-9.029-13.528l-1.59-1.221-1.848 1.14s-6.652 7.841-15.039 13.609c0 0-9.013 8.194-24.903 8.194 0 0-14.38.193-21.915-7.52 0 0-8.339-7.326-8.339-18.46V88.436s.402-5.591-8.37-5.591zM399.113 121.5c-1.72 4.419-4.097 9.239-4.097 9.239l-.836 2.667c.193 1.478.948 2.812.948 2.812 1.928 3.149 4.74 4.852 4.74 4.852 2.908 2.33 7.744 2.33 7.744 2.33 5.848 0 8.66-4.596 8.66-4.596 2.924-4 2.924-8.387 2.924-8.387 0-2.892-2.153-6.86-2.153-6.86-1.639-3.438-4.932-9.656-4.932-9.656-1.96-3.213-3.856-7.294-3.856-7.294-.932-2.394-1.8-2.057-1.8-2.057l-1.655 2.474c-3.084 8.58-5.687 14.476-5.687 14.476zm-57.246-38.27l1.735-1.977c7.327-10.54 12.79-30.157 12.79-30.157 1.703-5.446 1.895-13.014 1.895-13.014 0-4.836-1.896-9.543-1.896-9.543-2.313-4.708-5.687-4.628-5.687-4.628-4.354 0-7.632 5.833-7.632 5.833-3.02 4.964-3.02 13.817-3.02 13.817v36.262c0 5.061 1.815 3.407 1.815 3.407m122.943 34.4s.835-26.623 16.741-40.344c0 0 15.456-15.488 40.15-15.488 0 0 24.68.225 38.015 13.962 0 0 4.08 3.856 6.233 7.085 0 0 1.51 1.72 2.78.209 0 0 7.953-9.222 13.078-12.645 0 0 10.524-8.804 22.317-8.804 0 0 9.704-.241 15.038 4.932 0 0 6.475 5.383 9.705 12.034 0 0 1.703 2.78 4.257.21 0 0 5.367-5.833 11.6-10.09 0 0 10.074-7.745 24.293-7.745 0 0 12.645.418 18.638 6.427 0 0 10.507 8.387 10.507 20.003v59.688s0 7.278 6.46 7.47h6.458v18.477h-34.608s-20.79-.225-20.79-22.96v-42.736s0-9.014-11.166-9.014c0 0-12.468.241-12.468 10.54v64.17h-42.48v-65.905s-.242-6.218-5.158-6.218c0 0-4.515.643-7.101 3.888 0 0-2.105 1.912-1.06 4.916 0 0 .85 4.5.85 9.673 0 0 .21 24.228-15.198 38.415 0 0-15.055 16.115-39.99 16.115 0 0-24.679 0-38.85-14.17 0 0-18.251-14.798-18.251-42.096zm56.265 27.441s7.07.322 9.64-5.141c0 0 2.989-5.816 3.68-22.124v-.177c-.691-16.307-3.68-22.091-3.68-22.091-2.57-5.48-9.64-5.142-9.64-5.142h-.209s-7.101-.337-9.688 5.142c0 0-2.988 5.784-3.663 22.091v.177c.675 16.308 3.663 22.124 3.663 22.124 2.587 5.463 9.688 5.141 9.688 5.141h.21m208.674 9.255c2.554 0 4.723.883 6.506 2.699 1.816 1.783 2.684 3.936 2.684 6.475 0 2.57-.868 4.74-2.684 6.539-1.767 1.783-3.936 2.667-6.507 2.667-2.538 0-4.723-.884-6.474-2.667-1.768-1.8-2.635-3.969-2.635-6.54 0-2.538.867-4.69 2.635-6.474 1.799-1.816 3.968-2.7 6.474-2.7zm10.716 9.174c0-2.94-1.044-5.463-3.101-7.52-2.12-2.072-4.611-3.116-7.567-3.116-2.94 0-5.463 1.044-7.504 3.117-2.088 2.088-3.149 4.579-3.149 7.519 0 2.956 1.06 5.446 3.117 7.535 2.057 2.089 4.58 3.133 7.536 3.133 2.956 0 5.446-1.044 7.567-3.133 2.057-2.089 3.1-4.579 3.1-7.535zm-7.825-2.298l-1.205 1.768-1.992.305h-1.912v-4.21h1.784l2.554.434zm-7.133-3.615V169.3h2.024v-4.595h1.639l2.33.37 1.124 2.666v.932l.016.402.033.112.032.113h1.912l-.049-.129-.128-.626v-1.735l-.659-1.784-1.976-1.157 1.687-.546 1.125-2.33c0-1.462-.627-2.458-1.816-2.956-.675-.273-1.735-.45-3.23-.45h-4.064"/></g></svg>